<svg xmlns="http://www.w3.org/2000/svg" viewBox="0 0 32 32" shape-rendering="crispEdges"><rect width="32" height="32" rx="3" fill="#21140f"/><path fill="#7f5138" d="M6 5h20v22H6z"/><path fill="#d7a77e" d="M9 10h14v14H9z"/><path fill="#fff" d="M10 14h5v4h-5zM18 14h5v4h-5z"/><path fill="#2a6680" d="M13 15h2v3h-2zM18 15h2v3h-2z"/><path fill="#6d3d2a" d="M14 21h5v2h-5z"/><path fill="#e66d19" fill-opacity=".88" d="M4 3h24v5H4zM4 8h4v12H4zM24 8h4v12h-4z"/><path fill="#ffc857" fill-opacity=".76" d="M5 4h5v2H5zM23 7h3v7h-3z"/></svg>
